<mxfile host="Electron" modified="2023-09-11T04:57:28.564Z" agent="Mozilla/5.0 (Windows NT 10.0; Win64; x64) AppleWebKit/537.36 (KHTML, like Gecko) draw.io/21.6.1 Chrome/112.0.5615.204 Electron/24.6.1 Safari/537.36" etag="iCOKdupVNZAs8XH1qS9-" version="21.6.1" type="device" pages="2">
  <diagram name="putVal方法流程图" id="N9qZwAfxtD8fQq0e41AI">
    <mxGraphModel dx="1404" dy="823" grid="1" gridSize="10" guides="1" tooltips="1" connect="1" arrows="1" fold="1" page="1" pageScale="1" pageWidth="827" pageHeight="1169" math="0" shadow="0">
      <root>
        <mxCell id="0" />
        <mxCell id="1" parent="0" />
        <mxCell id="cMU5ko4373MyxyKUyDAn-1" value="&lt;font style=&quot;font-size: 16px;&quot;&gt;计算索引、逻辑判断&lt;/font&gt;" style="rounded=0;whiteSpace=wrap;html=1;fillColor=#dae8fc;strokeColor=#6c8ebf;fontStyle=1;sketch=1;curveFitting=1;jiggle=2;" parent="1" vertex="1">
          <mxGeometry x="20" y="20" width="510" height="60" as="geometry" />
        </mxCell>
        <mxCell id="cMU5ko4373MyxyKUyDAn-2" value="&lt;font style=&quot;font-size: 16px;&quot;&gt;扩容&lt;/font&gt;" style="rounded=0;whiteSpace=wrap;html=1;fontStyle=1;fillColor=#f8cecc;strokeColor=#b85450;sketch=1;curveFitting=1;jiggle=2;" parent="1" vertex="1">
          <mxGeometry x="530" y="20" width="240" height="60" as="geometry" />
        </mxCell>
        <mxCell id="cMU5ko4373MyxyKUyDAn-3" value="&lt;font style=&quot;font-size: 16px;&quot;&gt;链表&lt;/font&gt;" style="rounded=0;whiteSpace=wrap;html=1;fontStyle=1;fillColor=#d5e8d4;strokeColor=#82b366;sketch=1;curveFitting=1;jiggle=2;" parent="1" vertex="1">
          <mxGeometry x="770" y="20" width="470" height="60" as="geometry" />
        </mxCell>
        <mxCell id="cMU5ko4373MyxyKUyDAn-4" value="&lt;font style=&quot;font-size: 16px;&quot;&gt;红黑树&lt;/font&gt;" style="rounded=0;whiteSpace=wrap;html=1;fontStyle=1;fillColor=#fff2cc;strokeColor=#d6b656;sketch=1;curveFitting=1;jiggle=2;" parent="1" vertex="1">
          <mxGeometry x="1240" y="20" width="304" height="60" as="geometry" />
        </mxCell>
        <mxCell id="cMU5ko4373MyxyKUyDAn-68" style="edgeStyle=orthogonalEdgeStyle;rounded=0;orthogonalLoop=1;jettySize=auto;html=1;entryX=1;entryY=0.5;entryDx=0;entryDy=0;sketch=1;curveFitting=1;jiggle=2;" parent="1" source="cMU5ko4373MyxyKUyDAn-6" target="cMU5ko4373MyxyKUyDAn-11" edge="1">
          <mxGeometry relative="1" as="geometry">
            <Array as="points">
              <mxPoint x="650" y="435" />
            </Array>
          </mxGeometry>
        </mxCell>
        <mxCell id="cMU5ko4373MyxyKUyDAn-6" value="&lt;span style=&quot;font-size: 15px;&quot;&gt;resize 扩容&lt;br&gt;初始化长度为16的数组&lt;br&gt;&lt;/span&gt;" style="rounded=1;whiteSpace=wrap;html=1;fillColor=#fad9d5;strokeColor=#ae4132;sketch=1;curveFitting=1;jiggle=2;" parent="1" vertex="1">
          <mxGeometry x="570" y="240" width="160" height="60" as="geometry" />
        </mxCell>
        <mxCell id="cMU5ko4373MyxyKUyDAn-29" style="edgeStyle=orthogonalEdgeStyle;rounded=0;orthogonalLoop=1;jettySize=auto;html=1;exitX=1;exitY=0.5;exitDx=0;exitDy=0;sketch=1;curveFitting=1;jiggle=2;" parent="1" source="cMU5ko4373MyxyKUyDAn-8" target="cMU5ko4373MyxyKUyDAn-6" edge="1">
          <mxGeometry relative="1" as="geometry" />
        </mxCell>
        <mxCell id="cMU5ko4373MyxyKUyDAn-33" style="edgeStyle=orthogonalEdgeStyle;rounded=0;orthogonalLoop=1;jettySize=auto;html=1;entryX=0.5;entryY=0;entryDx=0;entryDy=0;sketch=1;curveFitting=1;jiggle=2;" parent="1" source="cMU5ko4373MyxyKUyDAn-8" target="cMU5ko4373MyxyKUyDAn-11" edge="1">
          <mxGeometry relative="1" as="geometry" />
        </mxCell>
        <mxCell id="cMU5ko4373MyxyKUyDAn-8" value="&lt;font style=&quot;font-size: 15px;&quot;&gt;table 是否为空&lt;br&gt;或&lt;br&gt;length == 0&lt;/font&gt;" style="rhombus;whiteSpace=wrap;html=1;sketch=1;curveFitting=1;jiggle=2;rounded=0;fillColor=#d0cee2;strokeColor=#56517e;" parent="1" vertex="1">
          <mxGeometry x="45.629999999999995" y="210" width="198.75" height="120" as="geometry" />
        </mxCell>
        <mxCell id="cMU5ko4373MyxyKUyDAn-32" style="edgeStyle=orthogonalEdgeStyle;rounded=0;orthogonalLoop=1;jettySize=auto;html=1;sketch=1;curveFitting=1;jiggle=2;" parent="1" source="cMU5ko4373MyxyKUyDAn-9" target="cMU5ko4373MyxyKUyDAn-8" edge="1">
          <mxGeometry relative="1" as="geometry" />
        </mxCell>
        <mxCell id="cMU5ko4373MyxyKUyDAn-9" value="&lt;font style=&quot;font-size: 15px;&quot;&gt;开始&lt;/font&gt;" style="ellipse;whiteSpace=wrap;html=1;shadow=0;sketch=1;curveFitting=1;jiggle=2;fillColor=#b0e3e6;strokeColor=#0e8088;" parent="1" vertex="1">
          <mxGeometry x="70" y="110" width="150" height="60" as="geometry" />
        </mxCell>
        <mxCell id="cMU5ko4373MyxyKUyDAn-34" style="edgeStyle=orthogonalEdgeStyle;rounded=0;orthogonalLoop=1;jettySize=auto;html=1;exitX=0.5;exitY=1;exitDx=0;exitDy=0;entryX=0.5;entryY=0;entryDx=0;entryDy=0;sketch=1;curveFitting=1;jiggle=2;" parent="1" source="cMU5ko4373MyxyKUyDAn-11" target="cMU5ko4373MyxyKUyDAn-12" edge="1">
          <mxGeometry relative="1" as="geometry" />
        </mxCell>
        <mxCell id="cMU5ko4373MyxyKUyDAn-11" value="&lt;span style=&quot;font-size: 15px;&quot;&gt;根据key(键)计算hash值得出插入的数组索引值&lt;/span&gt;" style="rounded=1;whiteSpace=wrap;html=1;fillColor=#fad9d5;strokeColor=#ae4132;sketch=1;curveFitting=1;jiggle=2;" parent="1" vertex="1">
          <mxGeometry x="60.00999999999999" y="390" width="170" height="90" as="geometry" />
        </mxCell>
        <mxCell id="cMU5ko4373MyxyKUyDAn-35" style="edgeStyle=orthogonalEdgeStyle;rounded=0;orthogonalLoop=1;jettySize=auto;html=1;exitX=1;exitY=0.5;exitDx=0;exitDy=0;sketch=1;curveFitting=1;jiggle=2;" parent="1" source="cMU5ko4373MyxyKUyDAn-12" target="cMU5ko4373MyxyKUyDAn-13" edge="1">
          <mxGeometry relative="1" as="geometry" />
        </mxCell>
        <mxCell id="cMU5ko4373MyxyKUyDAn-45" style="edgeStyle=orthogonalEdgeStyle;rounded=0;orthogonalLoop=1;jettySize=auto;html=1;sketch=1;curveFitting=1;jiggle=2;" parent="1" source="cMU5ko4373MyxyKUyDAn-12" target="cMU5ko4373MyxyKUyDAn-23" edge="1">
          <mxGeometry relative="1" as="geometry" />
        </mxCell>
        <mxCell id="cMU5ko4373MyxyKUyDAn-12" value="&lt;span style=&quot;font-size: 15px;&quot;&gt;table[i] == null&lt;/span&gt;" style="rhombus;whiteSpace=wrap;html=1;sketch=1;curveFitting=1;jiggle=2;rounded=0;fillColor=#d0cee2;strokeColor=#56517e;" parent="1" vertex="1">
          <mxGeometry x="55.61999999999999" y="540" width="178.75" height="100" as="geometry" />
        </mxCell>
        <mxCell id="cMU5ko4373MyxyKUyDAn-36" style="edgeStyle=orthogonalEdgeStyle;rounded=0;orthogonalLoop=1;jettySize=auto;html=1;exitX=1;exitY=0.5;exitDx=0;exitDy=0;entryX=0;entryY=0.5;entryDx=0;entryDy=0;sketch=1;curveFitting=1;jiggle=2;" parent="1" source="cMU5ko4373MyxyKUyDAn-13" target="cMU5ko4373MyxyKUyDAn-14" edge="1">
          <mxGeometry relative="1" as="geometry">
            <Array as="points">
              <mxPoint x="750" y="590" />
              <mxPoint x="750" y="210" />
            </Array>
          </mxGeometry>
        </mxCell>
        <mxCell id="cMU5ko4373MyxyKUyDAn-81" style="edgeStyle=orthogonalEdgeStyle;rounded=0;orthogonalLoop=1;jettySize=auto;html=1;entryX=0.5;entryY=0;entryDx=0;entryDy=0;sketch=1;curveFitting=1;jiggle=2;" parent="1" source="cMU5ko4373MyxyKUyDAn-13" target="cMU5ko4373MyxyKUyDAn-22" edge="1">
          <mxGeometry relative="1" as="geometry" />
        </mxCell>
        <mxCell id="cMU5ko4373MyxyKUyDAn-13" value="&lt;span style=&quot;font-size: 15px;&quot;&gt;key 是否存在&lt;/span&gt;" style="rhombus;whiteSpace=wrap;html=1;sketch=1;curveFitting=1;jiggle=2;rounded=0;fillColor=#d0cee2;strokeColor=#56517e;" parent="1" vertex="1">
          <mxGeometry x="304" y="540" width="178.75" height="100" as="geometry" />
        </mxCell>
        <mxCell id="cMU5ko4373MyxyKUyDAn-37" style="edgeStyle=orthogonalEdgeStyle;rounded=0;orthogonalLoop=1;jettySize=auto;html=1;exitX=0.5;exitY=1;exitDx=0;exitDy=0;entryX=0.5;entryY=0;entryDx=0;entryDy=0;sketch=1;curveFitting=1;jiggle=2;" parent="1" source="cMU5ko4373MyxyKUyDAn-14" target="cMU5ko4373MyxyKUyDAn-15" edge="1">
          <mxGeometry relative="1" as="geometry" />
        </mxCell>
        <mxCell id="cMU5ko4373MyxyKUyDAn-38" style="edgeStyle=orthogonalEdgeStyle;rounded=0;orthogonalLoop=1;jettySize=auto;html=1;exitX=1;exitY=0.5;exitDx=0;exitDy=0;entryX=0;entryY=0.5;entryDx=0;entryDy=0;sketch=1;curveFitting=1;jiggle=2;" parent="1" source="cMU5ko4373MyxyKUyDAn-14" target="cMU5ko4373MyxyKUyDAn-17" edge="1">
          <mxGeometry relative="1" as="geometry" />
        </mxCell>
        <mxCell id="cMU5ko4373MyxyKUyDAn-14" value="&lt;font style=&quot;font-size: 15px;&quot;&gt;table[i]是否为&lt;br&gt;TreeNode（红黑树）&lt;/font&gt;&lt;span style=&quot;font-size: 15px;&quot;&gt;&lt;br&gt;&lt;/span&gt;" style="rhombus;whiteSpace=wrap;html=1;sketch=1;curveFitting=1;jiggle=2;rounded=0;fillColor=#d0cee2;strokeColor=#56517e;" parent="1" vertex="1">
          <mxGeometry x="796.38" y="150" width="200" height="120" as="geometry" />
        </mxCell>
        <mxCell id="cMU5ko4373MyxyKUyDAn-39" style="edgeStyle=orthogonalEdgeStyle;rounded=0;orthogonalLoop=1;jettySize=auto;html=1;exitX=0.5;exitY=1;exitDx=0;exitDy=0;entryX=0.5;entryY=0;entryDx=0;entryDy=0;sketch=1;curveFitting=1;jiggle=2;" parent="1" source="cMU5ko4373MyxyKUyDAn-15" target="cMU5ko4373MyxyKUyDAn-16" edge="1">
          <mxGeometry relative="1" as="geometry" />
        </mxCell>
        <mxCell id="cMU5ko4373MyxyKUyDAn-15" value="&lt;span style=&quot;font-size: 15px;&quot;&gt;遍历链表&lt;/span&gt;" style="rounded=1;whiteSpace=wrap;html=1;fillColor=#fad9d5;strokeColor=#ae4132;sketch=1;curveFitting=1;jiggle=2;" parent="1" vertex="1">
          <mxGeometry x="836.38" y="330" width="120" height="60" as="geometry" />
        </mxCell>
        <mxCell id="cMU5ko4373MyxyKUyDAn-40" style="edgeStyle=orthogonalEdgeStyle;rounded=0;orthogonalLoop=1;jettySize=auto;html=1;exitX=1;exitY=0.5;exitDx=0;exitDy=0;entryX=0;entryY=0.5;entryDx=0;entryDy=0;sketch=1;curveFitting=1;jiggle=2;" parent="1" source="cMU5ko4373MyxyKUyDAn-16" target="cMU5ko4373MyxyKUyDAn-19" edge="1">
          <mxGeometry relative="1" as="geometry" />
        </mxCell>
        <mxCell id="cMU5ko4373MyxyKUyDAn-42" style="edgeStyle=orthogonalEdgeStyle;rounded=0;orthogonalLoop=1;jettySize=auto;html=1;exitX=0.5;exitY=1;exitDx=0;exitDy=0;entryX=0.5;entryY=0;entryDx=0;entryDy=0;" parent="1" source="cMU5ko4373MyxyKUyDAn-16" target="cMU5ko4373MyxyKUyDAn-21" edge="1">
          <mxGeometry relative="1" as="geometry" />
        </mxCell>
        <mxCell id="cMU5ko4373MyxyKUyDAn-16" value="&lt;span style=&quot;font-size: 15px;&quot;&gt;key是否存在&lt;br&gt;&lt;/span&gt;" style="rhombus;whiteSpace=wrap;html=1;sketch=1;curveFitting=1;jiggle=2;rounded=0;fillColor=#d0cee2;strokeColor=#56517e;" parent="1" vertex="1">
          <mxGeometry x="814.66" y="460" width="163.44" height="90" as="geometry" />
        </mxCell>
        <mxCell id="cMU5ko4373MyxyKUyDAn-48" style="edgeStyle=orthogonalEdgeStyle;rounded=0;orthogonalLoop=1;jettySize=auto;html=1;sketch=1;curveFitting=1;jiggle=2;" parent="1" source="cMU5ko4373MyxyKUyDAn-17" edge="1">
          <mxGeometry relative="1" as="geometry">
            <mxPoint x="140" y="810" as="targetPoint" />
            <Array as="points">
              <mxPoint x="1440" y="810" />
            </Array>
          </mxGeometry>
        </mxCell>
        <mxCell id="cMU5ko4373MyxyKUyDAn-17" value="&lt;span style=&quot;font-size: 15px;&quot;&gt;在红黑树中&lt;br&gt;直接接入键值对&lt;/span&gt;" style="rounded=1;whiteSpace=wrap;html=1;fillColor=#fad9d5;strokeColor=#ae4132;sketch=1;curveFitting=1;jiggle=2;" parent="1" vertex="1">
          <mxGeometry x="1367" y="180" width="130" height="60" as="geometry" />
        </mxCell>
        <mxCell id="cMU5ko4373MyxyKUyDAn-49" style="edgeStyle=orthogonalEdgeStyle;rounded=0;orthogonalLoop=1;jettySize=auto;html=1;exitX=0.5;exitY=1;exitDx=0;exitDy=0;sketch=1;curveFitting=1;jiggle=2;" parent="1" source="cMU5ko4373MyxyKUyDAn-18" edge="1">
          <mxGeometry relative="1" as="geometry">
            <mxPoint x="1330" y="810" as="targetPoint" />
            <Array as="points">
              <mxPoint x="1330" y="810" />
            </Array>
          </mxGeometry>
        </mxCell>
        <mxCell id="cMU5ko4373MyxyKUyDAn-18" value="&lt;span style=&quot;font-size: 15px;&quot;&gt;转换红黑树&lt;br&gt;再插入键值对&lt;br&gt;&lt;/span&gt;" style="rounded=1;whiteSpace=wrap;html=1;fillColor=#fad9d5;strokeColor=#ae4132;sketch=1;curveFitting=1;jiggle=2;" parent="1" vertex="1">
          <mxGeometry x="1270" y="620" width="120" height="60" as="geometry" />
        </mxCell>
        <mxCell id="cMU5ko4373MyxyKUyDAn-41" style="edgeStyle=orthogonalEdgeStyle;rounded=0;orthogonalLoop=1;jettySize=auto;html=1;entryX=0.5;entryY=0;entryDx=0;entryDy=0;sketch=1;curveFitting=1;jiggle=2;" parent="1" source="cMU5ko4373MyxyKUyDAn-19" target="cMU5ko4373MyxyKUyDAn-20" edge="1">
          <mxGeometry relative="1" as="geometry" />
        </mxCell>
        <mxCell id="cMU5ko4373MyxyKUyDAn-19" value="&lt;span style=&quot;font-size: 15px;&quot;&gt;在链尾插入结点&lt;br&gt;&lt;/span&gt;" style="rounded=1;whiteSpace=wrap;html=1;fillColor=#fad9d5;strokeColor=#ae4132;sketch=1;curveFitting=1;jiggle=2;" parent="1" vertex="1">
          <mxGeometry x="1027" y="475" width="120" height="60" as="geometry" />
        </mxCell>
        <mxCell id="cMU5ko4373MyxyKUyDAn-43" style="edgeStyle=orthogonalEdgeStyle;rounded=0;orthogonalLoop=1;jettySize=auto;html=1;exitX=1;exitY=0.5;exitDx=0;exitDy=0;entryX=0;entryY=0.5;entryDx=0;entryDy=0;sketch=1;curveFitting=1;jiggle=2;" parent="1" source="cMU5ko4373MyxyKUyDAn-20" target="cMU5ko4373MyxyKUyDAn-18" edge="1">
          <mxGeometry relative="1" as="geometry" />
        </mxCell>
        <mxCell id="cMU5ko4373MyxyKUyDAn-50" style="edgeStyle=orthogonalEdgeStyle;rounded=0;orthogonalLoop=1;jettySize=auto;html=1;sketch=1;curveFitting=1;jiggle=2;" parent="1" source="cMU5ko4373MyxyKUyDAn-20" edge="1">
          <mxGeometry relative="1" as="geometry">
            <mxPoint x="1087" y="810" as="targetPoint" />
          </mxGeometry>
        </mxCell>
        <mxCell id="cMU5ko4373MyxyKUyDAn-20" value="&lt;span style=&quot;font-size: 15px;&quot;&gt;链表长度是否大于8&lt;br&gt;&lt;/span&gt;" style="rhombus;whiteSpace=wrap;html=1;sketch=1;curveFitting=1;jiggle=2;rounded=0;fillColor=#d0cee2;strokeColor=#56517e;" parent="1" vertex="1">
          <mxGeometry x="996.6899999999999" y="592.5" width="180.62" height="115" as="geometry" />
        </mxCell>
        <mxCell id="cMU5ko4373MyxyKUyDAn-51" style="edgeStyle=orthogonalEdgeStyle;rounded=0;orthogonalLoop=1;jettySize=auto;html=1;exitX=0.5;exitY=1;exitDx=0;exitDy=0;sketch=1;curveFitting=1;jiggle=2;" parent="1" source="cMU5ko4373MyxyKUyDAn-21" edge="1">
          <mxGeometry relative="1" as="geometry">
            <mxPoint x="896" y="810" as="targetPoint" />
          </mxGeometry>
        </mxCell>
        <mxCell id="cMU5ko4373MyxyKUyDAn-21" value="&lt;span style=&quot;font-size: 15px;&quot;&gt;直接覆盖 value&lt;/span&gt;" style="rounded=1;whiteSpace=wrap;html=1;fillColor=#fad9d5;strokeColor=#ae4132;sketch=1;curveFitting=1;jiggle=2;" parent="1" vertex="1">
          <mxGeometry x="836.38" y="620" width="120" height="60" as="geometry" />
        </mxCell>
        <mxCell id="cMU5ko4373MyxyKUyDAn-52" style="edgeStyle=orthogonalEdgeStyle;rounded=0;orthogonalLoop=1;jettySize=auto;html=1;exitX=0.5;exitY=1;exitDx=0;exitDy=0;sketch=1;curveFitting=1;jiggle=2;strokeColor=default;" parent="1" source="cMU5ko4373MyxyKUyDAn-22" edge="1">
          <mxGeometry relative="1" as="geometry">
            <mxPoint x="394" y="810" as="targetPoint" />
          </mxGeometry>
        </mxCell>
        <mxCell id="cMU5ko4373MyxyKUyDAn-22" value="&lt;span style=&quot;font-size: 15px;&quot;&gt;直接覆盖 value&lt;/span&gt;" style="rounded=1;whiteSpace=wrap;html=1;fillColor=#fad9d5;strokeColor=#ae4132;sketch=1;curveFitting=1;jiggle=2;" parent="1" vertex="1">
          <mxGeometry x="334" y="700" width="120" height="60" as="geometry" />
        </mxCell>
        <mxCell id="cMU5ko4373MyxyKUyDAn-46" style="edgeStyle=orthogonalEdgeStyle;rounded=0;orthogonalLoop=1;jettySize=auto;html=1;exitX=0.5;exitY=1;exitDx=0;exitDy=0;entryX=0.5;entryY=0;entryDx=0;entryDy=0;sketch=1;curveFitting=1;jiggle=2;" parent="1" source="cMU5ko4373MyxyKUyDAn-23" target="cMU5ko4373MyxyKUyDAn-25" edge="1">
          <mxGeometry relative="1" as="geometry" />
        </mxCell>
        <mxCell id="cMU5ko4373MyxyKUyDAn-23" value="&lt;span style=&quot;font-size: 15px;&quot;&gt;直接插入 value&lt;/span&gt;" style="rounded=1;whiteSpace=wrap;html=1;fillColor=#fad9d5;strokeColor=#ae4132;sketch=1;curveFitting=1;jiggle=2;" parent="1" vertex="1">
          <mxGeometry x="84.99" y="700" width="120" height="60" as="geometry" />
        </mxCell>
        <mxCell id="cMU5ko4373MyxyKUyDAn-55" style="edgeStyle=orthogonalEdgeStyle;rounded=0;orthogonalLoop=1;jettySize=auto;html=1;entryX=1;entryY=0.5;entryDx=0;entryDy=0;exitX=0.532;exitY=1.024;exitDx=0;exitDy=0;exitPerimeter=0;sketch=1;curveFitting=1;jiggle=2;" parent="1" source="cMU5ko4373MyxyKUyDAn-24" target="cMU5ko4373MyxyKUyDAn-28" edge="1">
          <mxGeometry relative="1" as="geometry">
            <mxPoint x="550" y="1020" as="targetPoint" />
            <Array as="points">
              <mxPoint x="654" y="1010" />
            </Array>
          </mxGeometry>
        </mxCell>
        <mxCell id="cMU5ko4373MyxyKUyDAn-24" value="&lt;span style=&quot;font-size: 15px;&quot;&gt;resize 扩容&lt;/span&gt;" style="rounded=1;whiteSpace=wrap;html=1;fillColor=#fad9d5;strokeColor=#ae4132;sketch=1;curveFitting=1;jiggle=2;" parent="1" vertex="1">
          <mxGeometry x="590" y="850" width="120" height="60" as="geometry" />
        </mxCell>
        <mxCell id="cMU5ko4373MyxyKUyDAn-53" style="edgeStyle=orthogonalEdgeStyle;rounded=0;orthogonalLoop=1;jettySize=auto;html=1;exitX=1;exitY=0.5;exitDx=0;exitDy=0;sketch=1;curveFitting=1;jiggle=2;" parent="1" source="cMU5ko4373MyxyKUyDAn-25" target="cMU5ko4373MyxyKUyDAn-24" edge="1">
          <mxGeometry relative="1" as="geometry" />
        </mxCell>
        <mxCell id="cMU5ko4373MyxyKUyDAn-54" style="edgeStyle=orthogonalEdgeStyle;rounded=0;orthogonalLoop=1;jettySize=auto;html=1;exitX=0.5;exitY=1;exitDx=0;exitDy=0;entryX=0.504;entryY=-0.05;entryDx=0;entryDy=0;entryPerimeter=0;sketch=1;curveFitting=1;jiggle=2;" parent="1" source="cMU5ko4373MyxyKUyDAn-25" target="cMU5ko4373MyxyKUyDAn-28" edge="1">
          <mxGeometry relative="1" as="geometry" />
        </mxCell>
        <mxCell id="cMU5ko4373MyxyKUyDAn-25" value="&lt;span style=&quot;font-size: 15px;&quot;&gt;++size &amp;gt; threshold&lt;/span&gt;" style="rhombus;whiteSpace=wrap;html=1;sketch=1;curveFitting=1;jiggle=2;rounded=0;fillColor=#d0cee2;strokeColor=#56517e;" parent="1" vertex="1">
          <mxGeometry x="55.61" y="830" width="178.75" height="100" as="geometry" />
        </mxCell>
        <mxCell id="cMU5ko4373MyxyKUyDAn-28" value="&lt;font style=&quot;font-size: 15px;&quot;&gt;结束&lt;/font&gt;" style="ellipse;whiteSpace=wrap;html=1;shadow=0;sketch=1;curveFitting=1;jiggle=2;fillColor=#b0e3e6;strokeColor=#0e8088;" parent="1" vertex="1">
          <mxGeometry x="70.01" y="980" width="150" height="60" as="geometry" />
        </mxCell>
        <mxCell id="cMU5ko4373MyxyKUyDAn-56" value="&lt;font style=&quot;font-size: 18px;&quot;&gt;&lt;b style=&quot;&quot;&gt;是&lt;/b&gt;&lt;/font&gt;" style="text;html=1;strokeColor=none;fillColor=none;align=center;verticalAlign=middle;whiteSpace=wrap;rounded=0;" parent="1" vertex="1">
          <mxGeometry x="244" y="230" width="60" height="30" as="geometry" />
        </mxCell>
        <mxCell id="cMU5ko4373MyxyKUyDAn-57" value="&lt;font style=&quot;font-size: 18px;&quot;&gt;&lt;b style=&quot;&quot;&gt;否（非首次插入）&lt;/b&gt;&lt;/font&gt;" style="text;html=1;strokeColor=none;fillColor=none;align=center;verticalAlign=middle;whiteSpace=wrap;rounded=0;" parent="1" vertex="1">
          <mxGeometry x="144.99" y="330" width="175.01" height="30" as="geometry" />
        </mxCell>
        <mxCell id="cMU5ko4373MyxyKUyDAn-58" value="&lt;font style=&quot;font-size: 18px;&quot;&gt;&lt;b style=&quot;&quot;&gt;否&lt;/b&gt;&lt;/font&gt;" style="text;html=1;strokeColor=none;fillColor=none;align=center;verticalAlign=middle;whiteSpace=wrap;rounded=0;" parent="1" vertex="1">
          <mxGeometry x="230.01" y="550" width="60" height="30" as="geometry" />
        </mxCell>
        <mxCell id="cMU5ko4373MyxyKUyDAn-59" value="&lt;font style=&quot;font-size: 18px;&quot;&gt;&lt;b style=&quot;&quot;&gt;否&lt;/b&gt;&lt;/font&gt;" style="text;html=1;strokeColor=none;fillColor=none;align=center;verticalAlign=middle;whiteSpace=wrap;rounded=0;" parent="1" vertex="1">
          <mxGeometry x="460" y="550" width="60" height="30" as="geometry" />
        </mxCell>
        <mxCell id="cMU5ko4373MyxyKUyDAn-60" value="&lt;font style=&quot;font-size: 18px;&quot;&gt;&lt;b style=&quot;&quot;&gt;是&lt;/b&gt;&lt;/font&gt;" style="text;html=1;strokeColor=none;fillColor=none;align=center;verticalAlign=middle;whiteSpace=wrap;rounded=0;" parent="1" vertex="1">
          <mxGeometry x="340" y="640" width="40" height="30" as="geometry" />
        </mxCell>
        <mxCell id="cMU5ko4373MyxyKUyDAn-61" value="&lt;font style=&quot;font-size: 18px;&quot;&gt;&lt;b style=&quot;&quot;&gt;是&lt;/b&gt;&lt;/font&gt;" style="text;html=1;strokeColor=none;fillColor=none;align=center;verticalAlign=middle;whiteSpace=wrap;rounded=0;" parent="1" vertex="1">
          <mxGeometry x="84.99000000000001" y="640" width="60" height="30" as="geometry" />
        </mxCell>
        <mxCell id="cMU5ko4373MyxyKUyDAn-62" value="&lt;font style=&quot;font-size: 18px;&quot;&gt;&lt;b style=&quot;&quot;&gt;是&lt;/b&gt;&lt;/font&gt;" style="text;html=1;strokeColor=none;fillColor=none;align=center;verticalAlign=middle;whiteSpace=wrap;rounded=0;" parent="1" vertex="1">
          <mxGeometry x="836.38" y="550" width="60" height="30" as="geometry" />
        </mxCell>
        <mxCell id="cMU5ko4373MyxyKUyDAn-63" value="&lt;font style=&quot;font-size: 18px;&quot;&gt;&lt;b style=&quot;&quot;&gt;是&lt;/b&gt;&lt;/font&gt;" style="text;html=1;strokeColor=none;fillColor=none;align=center;verticalAlign=middle;whiteSpace=wrap;rounded=0;" parent="1" vertex="1">
          <mxGeometry x="997" y="170" width="60" height="30" as="geometry" />
        </mxCell>
        <mxCell id="cMU5ko4373MyxyKUyDAn-64" value="&lt;font style=&quot;font-size: 18px;&quot;&gt;&lt;b style=&quot;&quot;&gt;是&lt;/b&gt;&lt;/font&gt;" style="text;html=1;strokeColor=none;fillColor=none;align=center;verticalAlign=middle;whiteSpace=wrap;rounded=0;" parent="1" vertex="1">
          <mxGeometry x="1167" y="620" width="60" height="30" as="geometry" />
        </mxCell>
        <mxCell id="cMU5ko4373MyxyKUyDAn-65" value="&lt;font style=&quot;font-size: 18px;&quot;&gt;&lt;b style=&quot;&quot;&gt;否&lt;/b&gt;&lt;/font&gt;" style="text;html=1;strokeColor=none;fillColor=none;align=center;verticalAlign=middle;whiteSpace=wrap;rounded=0;" parent="1" vertex="1">
          <mxGeometry x="896.38" y="270" width="60" height="30" as="geometry" />
        </mxCell>
        <mxCell id="cMU5ko4373MyxyKUyDAn-66" value="&lt;font style=&quot;font-size: 18px;&quot;&gt;&lt;b style=&quot;&quot;&gt;否&lt;/b&gt;&lt;/font&gt;" style="text;html=1;strokeColor=none;fillColor=none;align=center;verticalAlign=middle;whiteSpace=wrap;rounded=0;" parent="1" vertex="1">
          <mxGeometry x="956.38" y="470" width="60" height="30" as="geometry" />
        </mxCell>
        <mxCell id="cMU5ko4373MyxyKUyDAn-67" value="&lt;font style=&quot;font-size: 18px;&quot;&gt;&lt;b style=&quot;&quot;&gt;否&lt;/b&gt;&lt;/font&gt;" style="text;html=1;strokeColor=none;fillColor=none;align=center;verticalAlign=middle;whiteSpace=wrap;rounded=0;" parent="1" vertex="1">
          <mxGeometry x="1027" y="707.5" width="60" height="30" as="geometry" />
        </mxCell>
        <mxCell id="cMU5ko4373MyxyKUyDAn-69" value="&lt;font style=&quot;font-size: 18px;&quot;&gt;&lt;b style=&quot;&quot;&gt;是&lt;/b&gt;&lt;/font&gt;" style="text;html=1;strokeColor=none;fillColor=none;align=center;verticalAlign=middle;whiteSpace=wrap;rounded=0;" parent="1" vertex="1">
          <mxGeometry x="220.01" y="850" width="60" height="30" as="geometry" />
        </mxCell>
        <mxCell id="cMU5ko4373MyxyKUyDAn-70" value="&lt;font style=&quot;font-size: 18px;&quot;&gt;&lt;b style=&quot;&quot;&gt;否&lt;/b&gt;&lt;/font&gt;" style="text;html=1;strokeColor=none;fillColor=none;align=center;verticalAlign=middle;whiteSpace=wrap;rounded=0;" parent="1" vertex="1">
          <mxGeometry x="84.98999999999998" y="929" width="60" height="30" as="geometry" />
        </mxCell>
        <mxCell id="cMU5ko4373MyxyKUyDAn-71" value="" style="endArrow=none;html=1;rounded=0;sketch=1;curveFitting=1;jiggle=2;entryX=1;entryY=1;entryDx=0;entryDy=0;strokeColor=#FF0000;dashed=1;" parent="1" target="cMU5ko4373MyxyKUyDAn-4" edge="1">
          <mxGeometry width="50" height="50" relative="1" as="geometry">
            <mxPoint x="1550" y="1082.3529411764705" as="sourcePoint" />
            <mxPoint x="1580" y="170" as="targetPoint" />
          </mxGeometry>
        </mxCell>
        <mxCell id="cMU5ko4373MyxyKUyDAn-72" value="" style="endArrow=none;html=1;rounded=0;sketch=1;curveFitting=1;jiggle=2;strokeColor=#FF0000;dashed=1;" parent="1" edge="1">
          <mxGeometry width="50" height="50" relative="1" as="geometry">
            <mxPoint x="1239" y="1080" as="sourcePoint" />
            <mxPoint x="1238.82" y="80" as="targetPoint" />
          </mxGeometry>
        </mxCell>
        <mxCell id="cMU5ko4373MyxyKUyDAn-73" value="" style="endArrow=none;html=1;rounded=0;sketch=1;curveFitting=1;jiggle=2;entryX=1;entryY=1;entryDx=0;entryDy=0;strokeColor=#FF0000;dashed=1;" parent="1" edge="1">
          <mxGeometry width="50" height="50" relative="1" as="geometry">
            <mxPoint x="768.82" y="1082.3529411764705" as="sourcePoint" />
            <mxPoint x="768.82" y="80" as="targetPoint" />
          </mxGeometry>
        </mxCell>
        <mxCell id="cMU5ko4373MyxyKUyDAn-74" value="" style="endArrow=none;html=1;rounded=0;sketch=1;curveFitting=1;jiggle=2;entryX=1;entryY=1;entryDx=0;entryDy=0;strokeColor=#FF0000;dashed=1;" parent="1" edge="1">
          <mxGeometry width="50" height="50" relative="1" as="geometry">
            <mxPoint x="530" y="1082" as="sourcePoint" />
            <mxPoint x="530" y="80" as="targetPoint" />
          </mxGeometry>
        </mxCell>
        <mxCell id="cMU5ko4373MyxyKUyDAn-75" value="" style="endArrow=none;html=1;rounded=0;sketch=1;curveFitting=1;jiggle=2;entryX=1;entryY=1;entryDx=0;entryDy=0;strokeColor=#FF0000;dashed=1;" parent="1" edge="1">
          <mxGeometry width="50" height="50" relative="1" as="geometry">
            <mxPoint x="20" y="1082.3529411764705" as="sourcePoint" />
            <mxPoint x="20" y="80" as="targetPoint" />
          </mxGeometry>
        </mxCell>
        <mxCell id="cMU5ko4373MyxyKUyDAn-77" value="" style="endArrow=none;html=1;rounded=0;sketch=1;curveFitting=1;jiggle=2;strokeColor=#FF0000;dashed=1;" parent="1" edge="1">
          <mxGeometry width="50" height="50" relative="1" as="geometry">
            <mxPoint x="1550" y="1080" as="sourcePoint" />
            <mxPoint x="20" y="1090" as="targetPoint" />
          </mxGeometry>
        </mxCell>
        <mxCell id="cMU5ko4373MyxyKUyDAn-82" value="&lt;font color=&quot;#cc00cc&quot; style=&quot;font-size: 18px;&quot;&gt;&lt;b style=&quot;&quot;&gt;注：threshold = 数组长度 × 0.75&lt;/b&gt;&lt;/font&gt;" style="text;html=1;strokeColor=none;fillColor=none;align=center;verticalAlign=middle;whiteSpace=wrap;rounded=0;" parent="1" vertex="1">
          <mxGeometry x="170" y="929" width="300" height="30" as="geometry" />
        </mxCell>
      </root>
    </mxGraphModel>
  </diagram>
  <diagram name="resize扩容流程" id="3VFbiaM1RcjWGnkV43Yj">
    <mxGraphModel dx="2029" dy="1199" grid="1" gridSize="10" guides="1" tooltips="1" connect="1" arrows="1" fold="1" page="1" pageScale="1" pageWidth="827" pageHeight="1169" math="0" shadow="0">
      <root>
        <mxCell id="lcbhRw79KL-0r9RXR9Nw-0" />
        <mxCell id="lcbhRw79KL-0r9RXR9Nw-1" parent="lcbhRw79KL-0r9RXR9Nw-0" />
        <mxCell id="-7xmw7Q0mvjLa_zOkXz3-31" value="" style="rounded=0;whiteSpace=wrap;html=1;fillColor=#d5e8d4;strokeColor=#82b366;sketch=1;curveFitting=1;jiggle=2;" vertex="1" parent="lcbhRw79KL-0r9RXR9Nw-1">
          <mxGeometry x="273" y="140" width="496" height="960" as="geometry" />
        </mxCell>
        <mxCell id="-7xmw7Q0mvjLa_zOkXz3-8" style="edgeStyle=orthogonalEdgeStyle;rounded=0;orthogonalLoop=1;jettySize=auto;html=1;exitX=0.5;exitY=1;exitDx=0;exitDy=0;entryX=0.5;entryY=0;entryDx=0;entryDy=0;sketch=1;curveFitting=1;jiggle=2;" edge="1" parent="lcbhRw79KL-0r9RXR9Nw-1" source="lcbhRw79KL-0r9RXR9Nw-7" target="-7xmw7Q0mvjLa_zOkXz3-3">
          <mxGeometry relative="1" as="geometry" />
        </mxCell>
        <mxCell id="lcbhRw79KL-0r9RXR9Nw-7" value="&lt;span style=&quot;font-size: 15px;&quot;&gt;newCap = oldCap * 2&lt;br&gt;&lt;/span&gt;" style="rounded=1;whiteSpace=wrap;html=1;fillColor=#fad9d5;strokeColor=#ae4132;sketch=1;curveFitting=1;jiggle=2;" parent="lcbhRw79KL-0r9RXR9Nw-1" vertex="1">
          <mxGeometry x="319" y="155" width="160" height="60" as="geometry" />
        </mxCell>
        <mxCell id="lcbhRw79KL-0r9RXR9Nw-8" style="edgeStyle=orthogonalEdgeStyle;rounded=0;orthogonalLoop=1;jettySize=auto;html=1;exitX=1;exitY=0.5;exitDx=0;exitDy=0;sketch=1;curveFitting=1;jiggle=2;" parent="lcbhRw79KL-0r9RXR9Nw-1" source="lcbhRw79KL-0r9RXR9Nw-10" target="lcbhRw79KL-0r9RXR9Nw-7" edge="1">
          <mxGeometry relative="1" as="geometry" />
        </mxCell>
        <mxCell id="lcbhRw79KL-0r9RXR9Nw-9" style="edgeStyle=orthogonalEdgeStyle;rounded=0;orthogonalLoop=1;jettySize=auto;html=1;entryX=0.5;entryY=0;entryDx=0;entryDy=0;sketch=1;curveFitting=1;jiggle=2;" parent="lcbhRw79KL-0r9RXR9Nw-1" source="lcbhRw79KL-0r9RXR9Nw-10" target="lcbhRw79KL-0r9RXR9Nw-14" edge="1">
          <mxGeometry relative="1" as="geometry" />
        </mxCell>
        <mxCell id="lcbhRw79KL-0r9RXR9Nw-10" value="&lt;span style=&quot;font-size: 15px;&quot;&gt;oldCap &amp;gt; 0&lt;/span&gt;" style="rhombus;whiteSpace=wrap;html=1;sketch=1;curveFitting=1;jiggle=2;rounded=0;fillColor=#d0cee2;strokeColor=#56517e;" parent="lcbhRw79KL-0r9RXR9Nw-1" vertex="1">
          <mxGeometry x="66.82000000000001" y="140" width="154.37" height="90" as="geometry" />
        </mxCell>
        <mxCell id="lcbhRw79KL-0r9RXR9Nw-11" style="edgeStyle=orthogonalEdgeStyle;rounded=0;orthogonalLoop=1;jettySize=auto;html=1;sketch=1;curveFitting=1;jiggle=2;" parent="lcbhRw79KL-0r9RXR9Nw-1" source="lcbhRw79KL-0r9RXR9Nw-12" target="lcbhRw79KL-0r9RXR9Nw-10" edge="1">
          <mxGeometry relative="1" as="geometry" />
        </mxCell>
        <mxCell id="lcbhRw79KL-0r9RXR9Nw-12" value="&lt;font style=&quot;font-size: 15px;&quot;&gt;开始&lt;/font&gt;" style="ellipse;whiteSpace=wrap;html=1;shadow=0;sketch=1;curveFitting=1;jiggle=2;fillColor=#b0e3e6;strokeColor=#0e8088;" parent="lcbhRw79KL-0r9RXR9Nw-1" vertex="1">
          <mxGeometry x="69" y="40" width="150" height="60" as="geometry" />
        </mxCell>
        <mxCell id="lcbhRw79KL-0r9RXR9Nw-14" value="&lt;span style=&quot;font-size: 15px;&quot;&gt;设置数组容量为16&lt;br&gt;设置扩容阈值12&lt;br&gt;&lt;/span&gt;" style="rounded=1;whiteSpace=wrap;html=1;fillColor=#fad9d5;strokeColor=#ae4132;sketch=1;curveFitting=1;jiggle=2;" parent="lcbhRw79KL-0r9RXR9Nw-1" vertex="1">
          <mxGeometry x="58.99999999999999" y="290" width="170" height="90" as="geometry" />
        </mxCell>
        <mxCell id="-7xmw7Q0mvjLa_zOkXz3-1" style="edgeStyle=orthogonalEdgeStyle;rounded=0;orthogonalLoop=1;jettySize=auto;html=1;entryX=0.5;entryY=0;entryDx=0;entryDy=0;sketch=1;curveFitting=1;jiggle=2;" edge="1" parent="lcbhRw79KL-0r9RXR9Nw-1" source="lcbhRw79KL-0r9RXR9Nw-43" target="lcbhRw79KL-0r9RXR9Nw-49">
          <mxGeometry relative="1" as="geometry" />
        </mxCell>
        <mxCell id="lcbhRw79KL-0r9RXR9Nw-49" value="&lt;font style=&quot;font-size: 15px;&quot;&gt;结束&lt;/font&gt;" style="ellipse;whiteSpace=wrap;html=1;shadow=0;sketch=1;curveFitting=1;jiggle=2;fillColor=#b0e3e6;strokeColor=#0e8088;" parent="lcbhRw79KL-0r9RXR9Nw-1" vertex="1">
          <mxGeometry x="69" y="550" width="150" height="60" as="geometry" />
        </mxCell>
        <mxCell id="lcbhRw79KL-0r9RXR9Nw-50" value="&lt;font style=&quot;font-size: 18px;&quot;&gt;&lt;b style=&quot;&quot;&gt;是&lt;/b&gt;&lt;/font&gt;" style="text;html=1;strokeColor=none;fillColor=none;align=center;verticalAlign=middle;whiteSpace=wrap;rounded=0;" parent="lcbhRw79KL-0r9RXR9Nw-1" vertex="1">
          <mxGeometry x="221.19" y="155" width="46" height="30" as="geometry" />
        </mxCell>
        <mxCell id="lcbhRw79KL-0r9RXR9Nw-51" value="&lt;font style=&quot;font-size: 18px;&quot;&gt;&lt;b style=&quot;&quot;&gt;否&lt;/b&gt;&lt;/font&gt;" style="text;html=1;strokeColor=none;fillColor=none;align=center;verticalAlign=middle;whiteSpace=wrap;rounded=0;" parent="lcbhRw79KL-0r9RXR9Nw-1" vertex="1">
          <mxGeometry x="149.00000000000003" y="230" width="45.01" height="30" as="geometry" />
        </mxCell>
        <mxCell id="-7xmw7Q0mvjLa_zOkXz3-2" value="&lt;font style=&quot;font-size: 18px;&quot;&gt;&lt;b style=&quot;&quot;&gt;拆分链表&lt;/b&gt;&lt;/font&gt;" style="text;html=1;strokeColor=none;fillColor=none;align=center;verticalAlign=middle;whiteSpace=wrap;rounded=0;" vertex="1" parent="lcbhRw79KL-0r9RXR9Nw-1">
          <mxGeometry x="449" y="100" width="110" height="30" as="geometry" />
        </mxCell>
        <mxCell id="-7xmw7Q0mvjLa_zOkXz3-9" style="edgeStyle=orthogonalEdgeStyle;rounded=0;orthogonalLoop=1;jettySize=auto;html=1;entryX=0.5;entryY=0;entryDx=0;entryDy=0;sketch=1;curveFitting=1;jiggle=2;" edge="1" parent="lcbhRw79KL-0r9RXR9Nw-1" source="-7xmw7Q0mvjLa_zOkXz3-3" target="-7xmw7Q0mvjLa_zOkXz3-4">
          <mxGeometry relative="1" as="geometry" />
        </mxCell>
        <mxCell id="-7xmw7Q0mvjLa_zOkXz3-3" value="&lt;font style=&quot;font-size: 15px;&quot;&gt;新建数组&lt;/font&gt;" style="rounded=1;whiteSpace=wrap;html=1;fillColor=#fad9d5;strokeColor=#ae4132;sketch=1;curveFitting=1;jiggle=2;" vertex="1" parent="lcbhRw79KL-0r9RXR9Nw-1">
          <mxGeometry x="319" y="260" width="160" height="60" as="geometry" />
        </mxCell>
        <mxCell id="-7xmw7Q0mvjLa_zOkXz3-10" style="edgeStyle=orthogonalEdgeStyle;rounded=0;orthogonalLoop=1;jettySize=auto;html=1;exitX=0.5;exitY=1;exitDx=0;exitDy=0;sketch=1;curveFitting=1;jiggle=2;" edge="1" parent="lcbhRw79KL-0r9RXR9Nw-1" source="-7xmw7Q0mvjLa_zOkXz3-4" target="-7xmw7Q0mvjLa_zOkXz3-6">
          <mxGeometry relative="1" as="geometry" />
        </mxCell>
        <mxCell id="-7xmw7Q0mvjLa_zOkXz3-4" value="&lt;font style=&quot;font-size: 15px;&quot;&gt;遍历旧数组&lt;/font&gt;" style="rounded=1;whiteSpace=wrap;html=1;fillColor=#fad9d5;strokeColor=#ae4132;sketch=1;curveFitting=1;jiggle=2;" vertex="1" parent="lcbhRw79KL-0r9RXR9Nw-1">
          <mxGeometry x="319" y="370" width="160" height="60" as="geometry" />
        </mxCell>
        <mxCell id="-7xmw7Q0mvjLa_zOkXz3-5" value="" style="edgeStyle=orthogonalEdgeStyle;rounded=0;orthogonalLoop=1;jettySize=auto;html=1;exitX=0.5;exitY=1;exitDx=0;exitDy=0;entryX=0.5;entryY=0;entryDx=0;entryDy=0;sketch=1;curveFitting=1;jiggle=2;" edge="1" parent="lcbhRw79KL-0r9RXR9Nw-1" source="lcbhRw79KL-0r9RXR9Nw-14" target="lcbhRw79KL-0r9RXR9Nw-43">
          <mxGeometry relative="1" as="geometry">
            <mxPoint x="144" y="380" as="sourcePoint" />
            <mxPoint x="143.9949999999999" y="470" as="targetPoint" />
          </mxGeometry>
        </mxCell>
        <mxCell id="lcbhRw79KL-0r9RXR9Nw-43" value="&lt;span style=&quot;font-size: 15px;&quot;&gt;新建数组&lt;/span&gt;" style="rounded=1;whiteSpace=wrap;html=1;fillColor=#fad9d5;strokeColor=#ae4132;sketch=1;curveFitting=1;jiggle=2;" parent="lcbhRw79KL-0r9RXR9Nw-1" vertex="1">
          <mxGeometry x="84" y="430" width="120" height="60" as="geometry" />
        </mxCell>
        <mxCell id="-7xmw7Q0mvjLa_zOkXz3-11" style="edgeStyle=orthogonalEdgeStyle;rounded=0;orthogonalLoop=1;jettySize=auto;html=1;exitX=0.5;exitY=1;exitDx=0;exitDy=0;entryX=0.5;entryY=0;entryDx=0;entryDy=0;sketch=1;curveFitting=1;jiggle=2;" edge="1" parent="lcbhRw79KL-0r9RXR9Nw-1" source="-7xmw7Q0mvjLa_zOkXz3-6" target="-7xmw7Q0mvjLa_zOkXz3-7">
          <mxGeometry relative="1" as="geometry" />
        </mxCell>
        <mxCell id="-7xmw7Q0mvjLa_zOkXz3-13" style="edgeStyle=orthogonalEdgeStyle;rounded=0;orthogonalLoop=1;jettySize=auto;html=1;exitX=1;exitY=0.5;exitDx=0;exitDy=0;entryX=0;entryY=0.5;entryDx=0;entryDy=0;sketch=1;curveFitting=1;jiggle=2;" edge="1" parent="lcbhRw79KL-0r9RXR9Nw-1" source="-7xmw7Q0mvjLa_zOkXz3-6" target="-7xmw7Q0mvjLa_zOkXz3-12">
          <mxGeometry relative="1" as="geometry" />
        </mxCell>
        <mxCell id="-7xmw7Q0mvjLa_zOkXz3-6" value="&lt;span style=&quot;font-size: 15px;&quot;&gt;e.next == null&lt;/span&gt;" style="rhombus;whiteSpace=wrap;html=1;sketch=1;curveFitting=1;jiggle=2;rounded=0;fillColor=#d0cee2;strokeColor=#56517e;" vertex="1" parent="lcbhRw79KL-0r9RXR9Nw-1">
          <mxGeometry x="321.82" y="470" width="154.37" height="90" as="geometry" />
        </mxCell>
        <mxCell id="-7xmw7Q0mvjLa_zOkXz3-16" style="edgeStyle=orthogonalEdgeStyle;rounded=0;orthogonalLoop=1;jettySize=auto;html=1;exitX=1;exitY=0.5;exitDx=0;exitDy=0;entryX=0;entryY=0.5;entryDx=0;entryDy=0;sketch=1;curveFitting=1;jiggle=2;" edge="1" parent="lcbhRw79KL-0r9RXR9Nw-1" source="-7xmw7Q0mvjLa_zOkXz3-7" target="-7xmw7Q0mvjLa_zOkXz3-15">
          <mxGeometry relative="1" as="geometry" />
        </mxCell>
        <mxCell id="-7xmw7Q0mvjLa_zOkXz3-19" style="edgeStyle=orthogonalEdgeStyle;rounded=0;orthogonalLoop=1;jettySize=auto;html=1;exitX=0.5;exitY=1;exitDx=0;exitDy=0;entryX=0.5;entryY=0;entryDx=0;entryDy=0;sketch=1;curveFitting=1;jiggle=2;" edge="1" parent="lcbhRw79KL-0r9RXR9Nw-1" source="-7xmw7Q0mvjLa_zOkXz3-7" target="-7xmw7Q0mvjLa_zOkXz3-18">
          <mxGeometry relative="1" as="geometry" />
        </mxCell>
        <mxCell id="-7xmw7Q0mvjLa_zOkXz3-7" value="&lt;span style=&quot;font-size: 15px;&quot;&gt;是否红黑树&lt;/span&gt;" style="rhombus;whiteSpace=wrap;html=1;sketch=1;curveFitting=1;jiggle=2;rounded=0;fillColor=#d0cee2;strokeColor=#56517e;" vertex="1" parent="lcbhRw79KL-0r9RXR9Nw-1">
          <mxGeometry x="321.81" y="600" width="154.37" height="90" as="geometry" />
        </mxCell>
        <mxCell id="-7xmw7Q0mvjLa_zOkXz3-12" value="&lt;font style=&quot;font-size: 15px;&quot;&gt;添加到新的数组中&lt;/font&gt;" style="rounded=1;whiteSpace=wrap;html=1;fillColor=#fad9d5;strokeColor=#ae4132;sketch=1;curveFitting=1;jiggle=2;" vertex="1" parent="lcbhRw79KL-0r9RXR9Nw-1">
          <mxGeometry x="559" y="485" width="160" height="60" as="geometry" />
        </mxCell>
        <mxCell id="-7xmw7Q0mvjLa_zOkXz3-14" value="&lt;font style=&quot;font-size: 18px;&quot;&gt;&lt;b style=&quot;&quot;&gt;是&lt;/b&gt;&lt;/font&gt;" style="text;html=1;strokeColor=none;fillColor=none;align=center;verticalAlign=middle;whiteSpace=wrap;rounded=0;" vertex="1" parent="lcbhRw79KL-0r9RXR9Nw-1">
          <mxGeometry x="469" y="480" width="46" height="30" as="geometry" />
        </mxCell>
        <mxCell id="-7xmw7Q0mvjLa_zOkXz3-15" value="&lt;font style=&quot;font-size: 15px;&quot;&gt;进行红黑树添加操作&lt;/font&gt;" style="rounded=1;whiteSpace=wrap;html=1;fillColor=#fad9d5;strokeColor=#ae4132;sketch=1;curveFitting=1;jiggle=2;" vertex="1" parent="lcbhRw79KL-0r9RXR9Nw-1">
          <mxGeometry x="559" y="615" width="160" height="60" as="geometry" />
        </mxCell>
        <mxCell id="-7xmw7Q0mvjLa_zOkXz3-17" value="&lt;font style=&quot;font-size: 18px;&quot;&gt;&lt;b style=&quot;&quot;&gt;是&lt;/b&gt;&lt;/font&gt;" style="text;html=1;strokeColor=none;fillColor=none;align=center;verticalAlign=middle;whiteSpace=wrap;rounded=0;" vertex="1" parent="lcbhRw79KL-0r9RXR9Nw-1">
          <mxGeometry x="463" y="610" width="46" height="30" as="geometry" />
        </mxCell>
        <mxCell id="-7xmw7Q0mvjLa_zOkXz3-23" style="edgeStyle=orthogonalEdgeStyle;rounded=0;orthogonalLoop=1;jettySize=auto;html=1;exitX=0.5;exitY=1;exitDx=0;exitDy=0;entryX=0.5;entryY=0;entryDx=0;entryDy=0;sketch=1;curveFitting=1;jiggle=2;" edge="1" parent="lcbhRw79KL-0r9RXR9Nw-1" source="-7xmw7Q0mvjLa_zOkXz3-18" target="-7xmw7Q0mvjLa_zOkXz3-22">
          <mxGeometry relative="1" as="geometry" />
        </mxCell>
        <mxCell id="-7xmw7Q0mvjLa_zOkXz3-18" value="&lt;font style=&quot;font-size: 15px;&quot;&gt;遍历链表&lt;/font&gt;" style="rounded=1;whiteSpace=wrap;html=1;fillColor=#fad9d5;strokeColor=#ae4132;sketch=1;curveFitting=1;jiggle=2;" vertex="1" parent="lcbhRw79KL-0r9RXR9Nw-1">
          <mxGeometry x="319" y="750" width="160" height="60" as="geometry" />
        </mxCell>
        <mxCell id="-7xmw7Q0mvjLa_zOkXz3-21" value="&lt;font style=&quot;font-size: 18px;&quot;&gt;&lt;b style=&quot;&quot;&gt;否&lt;/b&gt;&lt;/font&gt;" style="text;html=1;strokeColor=none;fillColor=none;align=center;verticalAlign=middle;whiteSpace=wrap;rounded=0;" vertex="1" parent="lcbhRw79KL-0r9RXR9Nw-1">
          <mxGeometry x="399" y="690" width="45.01" height="30" as="geometry" />
        </mxCell>
        <mxCell id="-7xmw7Q0mvjLa_zOkXz3-28" style="edgeStyle=orthogonalEdgeStyle;rounded=0;orthogonalLoop=1;jettySize=auto;html=1;exitX=1;exitY=0.5;exitDx=0;exitDy=0;entryX=0;entryY=0.5;entryDx=0;entryDy=0;sketch=1;curveFitting=1;jiggle=2;" edge="1" parent="lcbhRw79KL-0r9RXR9Nw-1" source="-7xmw7Q0mvjLa_zOkXz3-22" target="-7xmw7Q0mvjLa_zOkXz3-27">
          <mxGeometry relative="1" as="geometry" />
        </mxCell>
        <mxCell id="-7xmw7Q0mvjLa_zOkXz3-30" style="edgeStyle=orthogonalEdgeStyle;rounded=0;orthogonalLoop=1;jettySize=auto;html=1;exitX=0.5;exitY=1;exitDx=0;exitDy=0;sketch=1;curveFitting=1;jiggle=2;" edge="1" parent="lcbhRw79KL-0r9RXR9Nw-1" source="-7xmw7Q0mvjLa_zOkXz3-22" target="-7xmw7Q0mvjLa_zOkXz3-29">
          <mxGeometry relative="1" as="geometry" />
        </mxCell>
        <mxCell id="-7xmw7Q0mvjLa_zOkXz3-22" value="&lt;font style=&quot;font-size: 15px;&quot;&gt;(e.hash &amp;amp; oldCap) == 0&lt;/font&gt;&lt;span style=&quot;font-size: 15px;&quot;&gt;&lt;br&gt;&lt;/span&gt;" style="rhombus;whiteSpace=wrap;html=1;sketch=1;curveFitting=1;jiggle=2;rounded=0;fillColor=#d0cee2;strokeColor=#56517e;" vertex="1" parent="lcbhRw79KL-0r9RXR9Nw-1">
          <mxGeometry x="300.41" y="860" width="197.19" height="110" as="geometry" />
        </mxCell>
        <mxCell id="-7xmw7Q0mvjLa_zOkXz3-24" value="&lt;font style=&quot;font-size: 18px;&quot;&gt;&lt;b style=&quot;&quot;&gt;否&lt;/b&gt;&lt;/font&gt;" style="text;html=1;strokeColor=none;fillColor=none;align=center;verticalAlign=middle;whiteSpace=wrap;rounded=0;" vertex="1" parent="lcbhRw79KL-0r9RXR9Nw-1">
          <mxGeometry x="479" y="880" width="45.01" height="30" as="geometry" />
        </mxCell>
        <mxCell id="-7xmw7Q0mvjLa_zOkXz3-25" value="&lt;font style=&quot;font-size: 18px;&quot;&gt;&lt;b style=&quot;&quot;&gt;是&lt;/b&gt;&lt;/font&gt;" style="text;html=1;strokeColor=none;fillColor=none;align=center;verticalAlign=middle;whiteSpace=wrap;rounded=0;" vertex="1" parent="lcbhRw79KL-0r9RXR9Nw-1">
          <mxGeometry x="399" y="960" width="46" height="30" as="geometry" />
        </mxCell>
        <mxCell id="-7xmw7Q0mvjLa_zOkXz3-27" value="&lt;font style=&quot;font-size: 15px;&quot;&gt;newTab[ j + oldCap ] = oldTab[ j ]&lt;/font&gt;" style="rounded=1;whiteSpace=wrap;html=1;fillColor=#fad9d5;strokeColor=#ae4132;sketch=1;curveFitting=1;jiggle=2;" vertex="1" parent="lcbhRw79KL-0r9RXR9Nw-1">
          <mxGeometry x="569" y="885" width="170" height="60" as="geometry" />
        </mxCell>
        <mxCell id="-7xmw7Q0mvjLa_zOkXz3-29" value="&lt;font style=&quot;font-size: 15px;&quot;&gt;newTab[ j ] = oldTab[ j ]&lt;/font&gt;" style="rounded=1;whiteSpace=wrap;html=1;fillColor=#fad9d5;strokeColor=#ae4132;sketch=1;curveFitting=1;jiggle=2;" vertex="1" parent="lcbhRw79KL-0r9RXR9Nw-1">
          <mxGeometry x="311.51" y="1010" width="175" height="60" as="geometry" />
        </mxCell>
      </root>
    </mxGraphModel>
  </diagram>
</mxfile>
